<?xml version="1.0" standalone="no"?>
<!DOCTYPE svg PUBLIC "-//W3C//DTD SVG 20010904//EN"
 "http://www.w3.org/TR/2001/REC-SVG-20010904/DTD/svg10.dtd">
<svg version="1.0" xmlns="http://www.w3.org/2000/svg"
 width="500.000000pt" height="500.000000pt" viewBox="0 0 500.000000 500.000000"
 preserveAspectRatio="xMidYMid meet">

<g transform="translate(0.000000,500.000000) scale(0.100000,-0.100000)"
fill="#000000" stroke="none">
<path d="M423 4708 c-5 -7 -15 -44 -22 -82 -6 -38 -25 -98 -42 -135 -34 -74
-34 -105 -3 -109 16 -2 32 9 55 39 87 109 143 139 263 139 84 0 132 -15 140
-43 3 -12 6 -237 6 -500 l0 -478 -24 -23 c-13 -13 -50 -32 -82 -42 -64 -19
-91 -41 -74 -58 14 -14 600 -10 614 4 14 14 -10 38 -47 46 -18 3 -49 15 -69
25 -71 36 -68 13 -68 519 0 275 4 469 10 491 15 53 46 63 178 57 154 -7 179
-25 226 -161 7 -23 34 -33 49 -18 6 6 15 49 19 94 4 45 14 109 22 142 13 57 8
95 -13 95 -5 0 -25 -13 -45 -29 -62 -49 -102 -53 -556 -49 -449 3 -437 2 -476
59 -20 31 -45 37 -61 17z"/>
<path d="M4300 4640 c-118 -4 -301 -4 -407 -2 -173 5 -193 3 -199 -12 -9 -24
9 -41 64 -55 28 -7 60 -24 73 -37 l24 -26 3 -461 c2 -307 0 -474 -7 -498 -13
-42 -35 -59 -108 -83 -57 -19 -71 -32 -55 -48 10 -10 881 -20 909 -10 32 11
90 270 65 286 -14 8 -31 -11 -85 -94 -64 -98 -94 -110 -273 -110 -78 0 -150 3
-159 6 -38 15 -45 54 -45 272 0 148 3 211 12 220 8 8 50 12 124 12 131 0 153
-11 179 -89 18 -55 40 -80 56 -64 6 6 8 81 7 189 -3 205 -11 221 -63 121 -16
-32 -37 -62 -45 -67 -23 -14 -243 -13 -258 2 -9 9 -12 71 -12 215 0 203 0 204
25 228 23 24 29 25 160 25 180 0 212 -17 258 -136 17 -44 28 -59 43 -59 26 0
29 37 13 159 -13 102 -26 127 -62 124 -12 -1 -119 -5 -237 -8z"/>
<path d="M1916 4633 c-3 -4 -6 -14 -6 -24 0 -13 15 -22 53 -33 98 -29 92 8 95
-525 2 -256 0 -481 -3 -499 -8 -41 -35 -67 -91 -82 -52 -15 -73 -35 -55 -53
10 -10 69 -11 559 -7 8 0 12 9 10 22 -2 16 -16 25 -57 39 -65 21 -99 53 -111
105 -12 48 -13 374 -2 392 7 9 75 12 308 10 l299 -3 3 -190 c4 -257 -4 -280
-110 -315 -40 -13 -54 -22 -56 -38 -2 -13 2 -22 10 -22 474 -4 539 -3 549 7
17 17 -4 40 -44 49 -54 11 -84 32 -96 65 -7 22 -11 181 -11 493 0 538 -3 519
89 548 59 19 76 35 60 55 -8 9 -78 11 -282 10 -272 -2 -272 -2 -275 -24 -3
-18 4 -24 40 -33 121 -33 128 -49 128 -298 0 -133 -4 -192 -12 -200 -17 -17
-579 -17 -596 0 -13 13 -17 297 -6 382 8 58 36 87 107 109 56 18 75 38 54 55
-13 11 -540 15 -551 5z"/>
<path d="M925 3066 c-236 -46 -404 -192 -482 -419 -34 -98 -43 -282 -18 -377
56 -217 228 -385 455 -446 85 -22 261 -23 350 0 223 56 395 227 457 456 27
102 25 274 -7 369 -62 192 -233 351 -436 405 -84 23 -234 28 -319 12z m254
-105 c147 -77 244 -280 258 -541 10 -207 -37 -363 -137 -453 -62 -55 -122 -77
-215 -77 -99 0 -155 22 -226 88 -117 108 -179 292 -179 532 0 261 74 405 239
467 57 21 205 12 260 -16z"/>
<path d="M3945 3066 c-236 -46 -404 -192 -482 -419 -34 -98 -43 -282 -18 -377
56 -217 228 -385 455 -446 85 -22 261 -23 350 0 223 56 395 227 457 456 27
102 25 274 -7 369 -62 192 -233 351 -436 405 -84 23 -234 28 -319 12z m254
-105 c147 -77 244 -280 258 -541 10 -207 -37 -363 -137 -453 -62 -55 -122 -77
-215 -77 -99 0 -155 22 -226 88 -117 108 -179 292 -179 532 0 261 74 405 239
467 57 21 205 12 260 -16z"/>
<path d="M2068 3043 c-16 -19 7 -41 51 -49 48 -9 88 -30 101 -53 6 -13 10
-189 10 -499 0 -549 6 -516 -93 -547 -63 -21 -85 -39 -69 -57 8 -10 108 -13
488 -13 l479 0 6 25 c4 14 18 72 30 130 43 198 25 239 -47 110 -87 -154 -152
-186 -369 -178 -131 5 -161 14 -172 56 -5 15 -8 236 -8 490 l0 464 27 23 c15
13 57 33 93 45 57 19 66 25 63 44 -3 21 -4 21 -291 22 -225 0 -290 -3 -299
-13z"/>
<path d="M975 1556 c-312 -59 -541 -309 -561 -608 -16 -240 118 -470 336 -576
118 -58 193 -75 325 -75 79 0 133 6 190 21 105 27 279 105 283 126 2 9 -7 30
-19 47 -20 29 -21 39 -17 134 7 129 18 153 86 185 41 19 52 29 50 45 -3 20 -9
20 -273 20 l-270 0 0 -25 c0 -21 6 -26 40 -34 67 -14 127 -38 148 -59 18 -18
19 -30 15 -136 -3 -98 -7 -123 -26 -152 -53 -87 -209 -111 -336 -51 -164 77
-256 259 -258 512 -1 131 15 207 65 309 99 201 320 289 530 211 69 -26 125
-80 169 -165 18 -36 41 -68 50 -71 36 -11 41 4 35 115 -10 154 -13 163 -73
182 -133 45 -375 67 -489 45z"/>
<path d="M4135 1559 c-92 -14 -162 -37 -255 -85 -208 -108 -340 -298 -356
-515 -21 -295 180 -557 493 -640 154 -41 440 -23 570 36 51 23 52 24 73 96 29
96 37 178 20 189 -22 14 -46 -6 -78 -63 -47 -84 -130 -153 -213 -178 -104 -32
-223 -24 -311 19 -118 58 -205 169 -250 320 -28 96 -35 276 -14 366 35 149
133 279 256 339 62 31 70 32 185 32 114 0 123 -2 186 -31 79 -38 113 -77 149
-171 22 -59 29 -68 50 -68 l25 0 -1 125 c-1 75 -6 135 -13 147 -14 28 -110 59
-241 78 -104 16 -183 17 -275 4z"/>
<path d="M2302 1542 c-7 -2 -12 -12 -12 -22 0 -14 16 -24 64 -40 109 -36 101
8 104 -533 2 -343 -1 -479 -9 -500 -13 -31 -37 -45 -116 -71 -40 -13 -53 -22
-53 -37 0 -10 6 -20 13 -20 6 -1 136 -1 287 0 151 0 281 1 288 1 6 0 12 9 12
19 0 15 -15 24 -64 41 -35 11 -74 32 -87 46 l-24 26 -3 456 c-2 311 0 469 8
495 11 39 52 67 117 81 17 4 37 14 44 22 29 35 -2 39 -285 40 -150 0 -278 -2
-284 -4z"/>
</g>
</svg>
