<svg xmlns="http://www.w3.org/2000/svg" viewBox="none" fill="none" stroke="black" stroke-width="1"
            stroke-linecap="round" stroke-linejoin="round">
            <path
              d="M21.58 13.913c-.29 1.469-2.592 3.121-5.238 3.396-1.379.184-2.737.368-4.185.276-2.368-.092-4.237-.551-4.237-.551 0 .184.014.459.043.643.308 2.294 2.317 2.478 4.22 2.57 1.922 0 3.633-.46 3.633-.46l.079 1.653s-1.344.734-3.738.918c-1.32.091-2.96-.092-4.869-.551-4.14-1.102-4.853-5.507-4.961-10.005-.034-1.285-.013-2.57-.013-3.58 0-4.589 3-5.966 3-5.966 1.513-.734 4.11-1.01 6.808-1.01h.067c2.699 0 5.296.276 6.81 1.01 0 0 3 1.377 3 5.967 0 0 .037 3.304-.419 5.69"
              stroke="black" />
            <path
              d="M17.832 8.633v5h-1.978V8.78c0-1.023-.43-1.542-1.29-1.542-.95 0-1.427.616-1.427 1.834v2.655H11.17V9.072c0-1.218-.476-1.834-1.427-1.834-.86 0-1.29.52-1.29 1.542v4.852H6.475V8.633c0-1.022.26-1.834.782-2.434.538-.6 1.243-.909 2.118-.909 1.012 0 1.779.39 2.286 1.169l.492.827.493-.827c.507-.78 1.274-1.169 2.286-1.169.875 0 1.58.308 2.118.909.522.6.782 1.412.782 2.434"
              fill="black" stroke="none" />
          </svg>